<svg xmlns="http://www.w3.org/2000/svg" xmlns:xlink="http://www.w3.org/1999/xlink" width="500" zoomAndPan="magnify" viewBox="0 0 375 374.999991" height="500" preserveAspectRatio="xMidYMid meet" version="1.0"><defs><g/></defs><rect x="-37.5" width="450" fill="#ffffff" y="-37.499999" height="449.999989" fill-opacity="1"/><rect x="-37.5" width="450" fill="#ffffff" y="-37.499999" height="449.999989" fill-opacity="1"/><rect x="-37.5" width="450" fill="#5e17eb" y="-37.499999" height="449.999989" fill-opacity="1"/><g fill="#a6a6a6" fill-opacity="1"><g transform="translate(115.153564, 110.102826)"><g><path d="M 7.859375 0 L 3.828125 0 L 3.828125 -30.5 L 7.859375 -30.5 Z M 7.859375 0 "/></g></g></g><g fill="#a6a6a6" fill-opacity="1"><g transform="translate(128.836165, 110.102826)"><g><path d="M 12.53125 -13.59375 C 9.082031 -14.582031 6.570312 -15.800781 5 -17.25 C 3.425781 -18.695312 2.640625 -20.484375 2.640625 -22.609375 C 2.640625 -25.003906 3.597656 -26.988281 5.515625 -28.5625 C 7.441406 -30.132812 9.941406 -30.921875 13.015625 -30.921875 C 15.109375 -30.921875 16.972656 -30.515625 18.609375 -29.703125 C 20.253906 -28.898438 21.523438 -27.785156 22.421875 -26.359375 C 23.328125 -24.929688 23.78125 -23.375 23.78125 -21.6875 L 19.734375 -21.6875 C 19.734375 -23.53125 19.144531 -24.976562 17.96875 -26.03125 C 16.800781 -27.082031 15.148438 -27.609375 13.015625 -27.609375 C 11.023438 -27.609375 9.472656 -27.171875 8.359375 -26.296875 C 7.253906 -25.429688 6.703125 -24.222656 6.703125 -22.671875 C 6.703125 -21.421875 7.226562 -20.367188 8.28125 -19.515625 C 9.34375 -18.660156 11.140625 -17.875 13.671875 -17.15625 C 16.203125 -16.445312 18.179688 -15.660156 19.609375 -14.796875 C 21.046875 -13.941406 22.109375 -12.941406 22.796875 -11.796875 C 23.492188 -10.648438 23.84375 -9.300781 23.84375 -7.75 C 23.84375 -5.28125 22.878906 -3.300781 20.953125 -1.8125 C 19.023438 -0.320312 16.445312 0.421875 13.21875 0.421875 C 11.125 0.421875 9.164062 0.0195312 7.34375 -0.78125 C 5.53125 -1.582031 4.128906 -2.679688 3.140625 -4.078125 C 2.160156 -5.484375 1.671875 -7.070312 1.671875 -8.84375 L 5.71875 -8.84375 C 5.71875 -7 6.398438 -5.539062 7.765625 -4.46875 C 9.128906 -3.40625 10.945312 -2.875 13.21875 -2.875 C 15.34375 -2.875 16.96875 -3.304688 18.09375 -4.171875 C 19.226562 -5.035156 19.796875 -6.210938 19.796875 -7.703125 C 19.796875 -9.203125 19.269531 -10.359375 18.21875 -11.171875 C 17.175781 -11.992188 15.28125 -12.800781 12.53125 -13.59375 Z M 12.53125 -13.59375 "/></g></g></g><g fill="#a6a6a6" fill-opacity="1"><g transform="translate(156.300551, 110.102826)"><g><path d="M 20.390625 -7.96875 L 7.609375 -7.96875 L 4.734375 0 L 0.59375 0 L 12.234375 -30.5 L 15.75 -30.5 L 27.421875 0 L 23.296875 0 Z M 8.8125 -11.265625 L 19.1875 -11.265625 L 14 -25.53125 Z M 8.8125 -11.265625 "/></g></g></g><g fill="#a6a6a6" fill-opacity="1"><g transform="translate(186.299271, 110.102826)"><g><path d="M 20.390625 -7.96875 L 7.609375 -7.96875 L 4.734375 0 L 0.59375 0 L 12.234375 -30.5 L 15.75 -30.5 L 27.421875 0 L 23.296875 0 Z M 8.8125 -11.265625 L 19.1875 -11.265625 L 14 -25.53125 Z M 8.8125 -11.265625 "/></g></g></g><g fill="#a6a6a6" fill-opacity="1"><g transform="translate(216.297991, 110.102826)"><g><path d="M 25.984375 -9.671875 C 25.597656 -6.453125 24.40625 -3.960938 22.40625 -2.203125 C 20.40625 -0.453125 17.738281 0.421875 14.40625 0.421875 C 10.8125 0.421875 7.925781 -0.867188 5.75 -3.453125 C 3.582031 -6.035156 2.5 -9.492188 2.5 -13.828125 L 2.5 -16.765625 C 2.5 -19.597656 3.003906 -22.085938 4.015625 -24.234375 C 5.023438 -26.390625 6.457031 -28.039062 8.3125 -29.1875 C 10.175781 -30.34375 12.328125 -30.921875 14.765625 -30.921875 C 18.003906 -30.921875 20.601562 -30.015625 22.5625 -28.203125 C 24.519531 -26.398438 25.660156 -23.898438 25.984375 -20.703125 L 21.9375 -20.703125 C 21.582031 -23.128906 20.820312 -24.882812 19.65625 -25.96875 C 18.488281 -27.0625 16.859375 -27.609375 14.765625 -27.609375 C 12.203125 -27.609375 10.1875 -26.65625 8.71875 -24.75 C 7.257812 -22.851562 6.53125 -20.15625 6.53125 -16.65625 L 6.53125 -13.703125 C 6.53125 -10.390625 7.222656 -7.753906 8.609375 -5.796875 C 9.992188 -3.847656 11.925781 -2.875 14.40625 -2.875 C 16.644531 -2.875 18.359375 -3.378906 19.546875 -4.390625 C 20.742188 -5.398438 21.539062 -7.160156 21.9375 -9.671875 Z M 25.984375 -9.671875 "/></g></g></g><g fill="#a6a6a6" fill-opacity="1"><g transform="translate(246.231927, 110.102826)"><g/></g></g><g fill="#a6a6a6" fill-opacity="1"><g transform="translate(166.965207, 156.122757)"><g><path d="M 10.125 -9.609375 L 10.703125 -5.59375 L 11.5625 -9.21875 L 17.59375 -30.5 L 21 -30.5 L 26.875 -9.21875 L 27.71875 -5.53125 L 28.359375 -9.640625 L 33.09375 -30.5 L 37.140625 -30.5 L 29.75 0 L 26.078125 0 L 19.796875 -22.234375 L 19.3125 -24.546875 L 18.828125 -22.234375 L 12.3125 0 L 8.65625 0 L 1.28125 -30.5 L 5.296875 -30.5 Z M 10.125 -9.609375 "/></g></g></g><g fill="#a6a6a6" fill-opacity="1"><g transform="translate(172.665403, 202.142687)"><g><path d="M 2.109375 -8.1875 C 2.109375 -9.65625 2.515625 -11.003906 3.328125 -12.234375 C 4.148438 -13.460938 5.71875 -14.894531 8.03125 -16.53125 C 6.664062 -18.175781 5.753906 -19.5 5.296875 -20.5 C 4.835938 -21.507812 4.609375 -22.507812 4.609375 -23.5 C 4.609375 -25.820312 5.289062 -27.640625 6.65625 -28.953125 C 8.03125 -30.265625 9.890625 -30.921875 12.234375 -30.921875 C 14.328125 -30.921875 16.054688 -30.304688 17.421875 -29.078125 C 18.796875 -27.859375 19.484375 -26.320312 19.484375 -24.46875 C 19.484375 -23.238281 19.171875 -22.101562 18.546875 -21.0625 C 17.929688 -20.019531 16.847656 -18.925781 15.296875 -17.78125 L 13.046875 -16.125 L 19.84375 -8.03125 C 20.789062 -9.84375 21.265625 -11.859375 21.265625 -14.078125 L 24.765625 -14.078125 C 24.765625 -10.515625 23.90625 -7.5625 22.1875 -5.21875 L 26.546875 0 L 21.890625 0 L 19.859375 -2.40625 C 18.828125 -1.488281 17.613281 -0.785156 16.21875 -0.296875 C 14.832031 0.179688 13.421875 0.421875 11.984375 0.421875 C 9.003906 0.421875 6.613281 -0.363281 4.8125 -1.9375 C 3.007812 -3.519531 2.109375 -5.601562 2.109375 -8.1875 Z M 11.984375 -2.75 C 14.035156 -2.75 15.914062 -3.53125 17.625 -5.09375 L 10.1875 -14 L 9.484375 -13.484375 C 7.148438 -11.773438 5.984375 -10.007812 5.984375 -8.1875 C 5.984375 -6.539062 6.519531 -5.222656 7.59375 -4.234375 C 8.664062 -3.242188 10.128906 -2.75 11.984375 -2.75 Z M 8.484375 -23.625 C 8.484375 -22.289062 9.304688 -20.617188 10.953125 -18.609375 L 13.421875 -20.34375 C 14.378906 -21.007812 15.03125 -21.644531 15.375 -22.25 C 15.726562 -22.863281 15.90625 -23.601562 15.90625 -24.46875 C 15.90625 -25.40625 15.554688 -26.179688 14.859375 -26.796875 C 14.160156 -27.421875 13.28125 -27.734375 12.21875 -27.734375 C 11.070312 -27.734375 10.160156 -27.34375 9.484375 -26.5625 C 8.816406 -25.789062 8.484375 -24.8125 8.484375 -23.625 Z M 8.484375 -23.625 "/></g></g></g><g fill="#a6a6a6" fill-opacity="1"><g transform="translate(51.248615, 248.162618)"><g><path d="M 20.390625 -7.96875 L 7.609375 -7.96875 L 4.734375 0 L 0.59375 0 L 12.234375 -30.5 L 15.75 -30.5 L 27.421875 0 L 23.296875 0 Z M 8.8125 -11.265625 L 19.1875 -11.265625 L 14 -25.53125 Z M 8.8125 -11.265625 "/></g></g></g><g fill="#a6a6a6" fill-opacity="1"><g transform="translate(81.247335, 248.162618)"><g><path d="M 12.53125 -13.59375 C 9.082031 -14.582031 6.570312 -15.800781 5 -17.25 C 3.425781 -18.695312 2.640625 -20.484375 2.640625 -22.609375 C 2.640625 -25.003906 3.597656 -26.988281 5.515625 -28.5625 C 7.441406 -30.132812 9.941406 -30.921875 13.015625 -30.921875 C 15.109375 -30.921875 16.972656 -30.515625 18.609375 -29.703125 C 20.253906 -28.898438 21.523438 -27.785156 22.421875 -26.359375 C 23.328125 -24.929688 23.78125 -23.375 23.78125 -21.6875 L 19.734375 -21.6875 C 19.734375 -23.53125 19.144531 -24.976562 17.96875 -26.03125 C 16.800781 -27.082031 15.148438 -27.609375 13.015625 -27.609375 C 11.023438 -27.609375 9.472656 -27.171875 8.359375 -26.296875 C 7.253906 -25.429688 6.703125 -24.222656 6.703125 -22.671875 C 6.703125 -21.421875 7.226562 -20.367188 8.28125 -19.515625 C 9.34375 -18.660156 11.140625 -17.875 13.671875 -17.15625 C 16.203125 -16.445312 18.179688 -15.660156 19.609375 -14.796875 C 21.046875 -13.941406 22.109375 -12.941406 22.796875 -11.796875 C 23.492188 -10.648438 23.84375 -9.300781 23.84375 -7.75 C 23.84375 -5.28125 22.878906 -3.300781 20.953125 -1.8125 C 19.023438 -0.320312 16.445312 0.421875 13.21875 0.421875 C 11.125 0.421875 9.164062 0.0195312 7.34375 -0.78125 C 5.53125 -1.582031 4.128906 -2.679688 3.140625 -4.078125 C 2.160156 -5.484375 1.671875 -7.070312 1.671875 -8.84375 L 5.71875 -8.84375 C 5.71875 -7 6.398438 -5.539062 7.765625 -4.46875 C 9.128906 -3.40625 10.945312 -2.875 13.21875 -2.875 C 15.34375 -2.875 16.96875 -3.304688 18.09375 -4.171875 C 19.226562 -5.035156 19.796875 -6.210938 19.796875 -7.703125 C 19.796875 -9.203125 19.269531 -10.359375 18.21875 -11.171875 C 17.175781 -11.992188 15.28125 -12.800781 12.53125 -13.59375 Z M 12.53125 -13.59375 "/></g></g></g><g fill="#a6a6a6" fill-opacity="1"><g transform="translate(108.711721, 248.162618)"><g><path d="M 12.53125 -13.59375 C 9.082031 -14.582031 6.570312 -15.800781 5 -17.25 C 3.425781 -18.695312 2.640625 -20.484375 2.640625 -22.609375 C 2.640625 -25.003906 3.597656 -26.988281 5.515625 -28.5625 C 7.441406 -30.132812 9.941406 -30.921875 13.015625 -30.921875 C 15.109375 -30.921875 16.972656 -30.515625 18.609375 -29.703125 C 20.253906 -28.898438 21.523438 -27.785156 22.421875 -26.359375 C 23.328125 -24.929688 23.78125 -23.375 23.78125 -21.6875 L 19.734375 -21.6875 C 19.734375 -23.53125 19.144531 -24.976562 17.96875 -26.03125 C 16.800781 -27.082031 15.148438 -27.609375 13.015625 -27.609375 C 11.023438 -27.609375 9.472656 -27.171875 8.359375 -26.296875 C 7.253906 -25.429688 6.703125 -24.222656 6.703125 -22.671875 C 6.703125 -21.421875 7.226562 -20.367188 8.28125 -19.515625 C 9.34375 -18.660156 11.140625 -17.875 13.671875 -17.15625 C 16.203125 -16.445312 18.179688 -15.660156 19.609375 -14.796875 C 21.046875 -13.941406 22.109375 -12.941406 22.796875 -11.796875 C 23.492188 -10.648438 23.84375 -9.300781 23.84375 -7.75 C 23.84375 -5.28125 22.878906 -3.300781 20.953125 -1.8125 C 19.023438 -0.320312 16.445312 0.421875 13.21875 0.421875 C 11.125 0.421875 9.164062 0.0195312 7.34375 -0.78125 C 5.53125 -1.582031 4.128906 -2.679688 3.140625 -4.078125 C 2.160156 -5.484375 1.671875 -7.070312 1.671875 -8.84375 L 5.71875 -8.84375 C 5.71875 -7 6.398438 -5.539062 7.765625 -4.46875 C 9.128906 -3.40625 10.945312 -2.875 13.21875 -2.875 C 15.34375 -2.875 16.96875 -3.304688 18.09375 -4.171875 C 19.226562 -5.035156 19.796875 -6.210938 19.796875 -7.703125 C 19.796875 -9.203125 19.269531 -10.359375 18.21875 -11.171875 C 17.175781 -11.992188 15.28125 -12.800781 12.53125 -13.59375 Z M 12.53125 -13.59375 "/></g></g></g><g fill="#a6a6a6" fill-opacity="1"><g transform="translate(136.176107, 248.162618)"><g><path d="M 27 -14.265625 C 27 -11.273438 26.492188 -8.664062 25.484375 -6.4375 C 24.484375 -4.207031 23.0625 -2.503906 21.21875 -1.328125 C 19.375 -0.160156 17.222656 0.421875 14.765625 0.421875 C 12.367188 0.421875 10.238281 -0.164062 8.375 -1.34375 C 6.519531 -2.53125 5.078125 -4.210938 4.046875 -6.390625 C 3.023438 -8.578125 2.5 -11.113281 2.46875 -14 L 2.46875 -16.1875 C 2.46875 -19.125 2.976562 -21.71875 4 -23.96875 C 5.019531 -26.21875 6.460938 -27.9375 8.328125 -29.125 C 10.191406 -30.320312 12.328125 -30.921875 14.734375 -30.921875 C 17.171875 -30.921875 19.320312 -30.328125 21.1875 -29.140625 C 23.050781 -27.960938 24.484375 -26.253906 25.484375 -24.015625 C 26.492188 -21.773438 27 -19.164062 27 -16.1875 Z M 23 -16.234375 C 23 -19.847656 22.269531 -22.625 20.8125 -24.5625 C 19.363281 -26.5 17.335938 -27.46875 14.734375 -27.46875 C 12.191406 -27.46875 10.1875 -26.5 8.71875 -24.5625 C 7.257812 -22.625 6.507812 -19.941406 6.46875 -16.515625 L 6.46875 -14.265625 C 6.46875 -10.765625 7.203125 -8.007812 8.671875 -6 C 10.148438 -4 12.179688 -3 14.765625 -3 C 17.367188 -3 19.378906 -3.941406 20.796875 -5.828125 C 22.222656 -7.722656 22.957031 -10.4375 23 -13.96875 Z M 23 -16.234375 "/></g></g></g><g fill="#a6a6a6" fill-opacity="1"><g transform="translate(167.682864, 248.162618)"><g><path d="M 25.984375 -9.671875 C 25.597656 -6.453125 24.40625 -3.960938 22.40625 -2.203125 C 20.40625 -0.453125 17.738281 0.421875 14.40625 0.421875 C 10.8125 0.421875 7.925781 -0.867188 5.75 -3.453125 C 3.582031 -6.035156 2.5 -9.492188 2.5 -13.828125 L 2.5 -16.765625 C 2.5 -19.597656 3.003906 -22.085938 4.015625 -24.234375 C 5.023438 -26.390625 6.457031 -28.039062 8.3125 -29.1875 C 10.175781 -30.34375 12.328125 -30.921875 14.765625 -30.921875 C 18.003906 -30.921875 20.601562 -30.015625 22.5625 -28.203125 C 24.519531 -26.398438 25.660156 -23.898438 25.984375 -20.703125 L 21.9375 -20.703125 C 21.582031 -23.128906 20.820312 -24.882812 19.65625 -25.96875 C 18.488281 -27.0625 16.859375 -27.609375 14.765625 -27.609375 C 12.203125 -27.609375 10.1875 -26.65625 8.71875 -24.75 C 7.257812 -22.851562 6.53125 -20.15625 6.53125 -16.65625 L 6.53125 -13.703125 C 6.53125 -10.390625 7.222656 -7.753906 8.609375 -5.796875 C 9.992188 -3.847656 11.925781 -2.875 14.40625 -2.875 C 16.644531 -2.875 18.359375 -3.378906 19.546875 -4.390625 C 20.742188 -5.398438 21.539062 -7.160156 21.9375 -9.671875 Z M 25.984375 -9.671875 "/></g></g></g><g fill="#a6a6a6" fill-opacity="1"><g transform="translate(197.618749, 248.162618)"><g><path d="M 7.859375 0 L 3.828125 0 L 3.828125 -30.5 L 7.859375 -30.5 Z M 7.859375 0 "/></g></g></g><g fill="#a6a6a6" fill-opacity="1"><g transform="translate(211.301344, 248.162618)"><g><path d="M 20.390625 -7.96875 L 7.609375 -7.96875 L 4.734375 0 L 0.59375 0 L 12.234375 -30.5 L 15.75 -30.5 L 27.421875 0 L 23.296875 0 Z M 8.8125 -11.265625 L 19.1875 -11.265625 L 14 -25.53125 Z M 8.8125 -11.265625 "/></g></g></g><g fill="#a6a6a6" fill-opacity="1"><g transform="translate(241.300071, 248.162618)"><g><path d="M 24.609375 -27.1875 L 14.8125 -27.1875 L 14.8125 0 L 10.8125 0 L 10.8125 -27.1875 L 1.03125 -27.1875 L 1.03125 -30.5 L 24.609375 -30.5 Z M 24.609375 -27.1875 "/></g></g></g><g fill="#a6a6a6" fill-opacity="1"><g transform="translate(268.911059, 248.162618)"><g><path d="M 20.78125 -14.09375 L 7.5625 -14.09375 L 7.5625 -3.296875 L 22.921875 -3.296875 L 22.921875 0 L 3.546875 0 L 3.546875 -30.5 L 22.703125 -30.5 L 22.703125 -27.1875 L 7.5625 -27.1875 L 7.5625 -17.390625 L 20.78125 -17.390625 Z M 20.78125 -14.09375 "/></g></g></g><g fill="#a6a6a6" fill-opacity="1"><g transform="translate(295.307251, 248.162618)"><g><path d="M 12.53125 -13.59375 C 9.082031 -14.582031 6.570312 -15.800781 5 -17.25 C 3.425781 -18.695312 2.640625 -20.484375 2.640625 -22.609375 C 2.640625 -25.003906 3.597656 -26.988281 5.515625 -28.5625 C 7.441406 -30.132812 9.941406 -30.921875 13.015625 -30.921875 C 15.109375 -30.921875 16.972656 -30.515625 18.609375 -29.703125 C 20.253906 -28.898438 21.523438 -27.785156 22.421875 -26.359375 C 23.328125 -24.929688 23.78125 -23.375 23.78125 -21.6875 L 19.734375 -21.6875 C 19.734375 -23.53125 19.144531 -24.976562 17.96875 -26.03125 C 16.800781 -27.082031 15.148438 -27.609375 13.015625 -27.609375 C 11.023438 -27.609375 9.472656 -27.171875 8.359375 -26.296875 C 7.253906 -25.429688 6.703125 -24.222656 6.703125 -22.671875 C 6.703125 -21.421875 7.226562 -20.367188 8.28125 -19.515625 C 9.34375 -18.660156 11.140625 -17.875 13.671875 -17.15625 C 16.203125 -16.445312 18.179688 -15.660156 19.609375 -14.796875 C 21.046875 -13.941406 22.109375 -12.941406 22.796875 -11.796875 C 23.492188 -10.648438 23.84375 -9.300781 23.84375 -7.75 C 23.84375 -5.28125 22.878906 -3.300781 20.953125 -1.8125 C 19.023438 -0.320312 16.445312 0.421875 13.21875 0.421875 C 11.125 0.421875 9.164062 0.0195312 7.34375 -0.78125 C 5.53125 -1.582031 4.128906 -2.679688 3.140625 -4.078125 C 2.160156 -5.484375 1.671875 -7.070312 1.671875 -8.84375 L 5.71875 -8.84375 C 5.71875 -7 6.398438 -5.539062 7.765625 -4.46875 C 9.128906 -3.40625 10.945312 -2.875 13.21875 -2.875 C 15.34375 -2.875 16.96875 -3.304688 18.09375 -4.171875 C 19.226562 -5.035156 19.796875 -6.210938 19.796875 -7.703125 C 19.796875 -9.203125 19.269531 -10.359375 18.21875 -11.171875 C 17.175781 -11.992188 15.28125 -12.800781 12.53125 -13.59375 Z M 12.53125 -13.59375 "/></g></g></g><g fill="#a6a6a6" fill-opacity="1"><g transform="translate(55.824461, 294.182548)"><g><path d="M 20.390625 -7.96875 L 7.609375 -7.96875 L 4.734375 0 L 0.59375 0 L 12.234375 -30.5 L 15.75 -30.5 L 27.421875 0 L 23.296875 0 Z M 8.8125 -11.265625 L 19.1875 -11.265625 L 14 -25.53125 Z M 8.8125 -11.265625 "/></g></g></g><g fill="#a6a6a6" fill-opacity="1"><g transform="translate(85.823181, 294.182548)"><g><path d="M 3.546875 0 L 3.546875 -30.5 L 12.15625 -30.5 C 14.800781 -30.5 17.144531 -29.910156 19.1875 -28.734375 C 21.226562 -27.566406 22.800781 -25.898438 23.90625 -23.734375 C 25.019531 -21.566406 25.582031 -19.082031 25.59375 -16.28125 L 25.59375 -14.328125 C 25.59375 -11.453125 25.035156 -8.929688 23.921875 -6.765625 C 22.816406 -4.597656 21.234375 -2.9375 19.171875 -1.78125 C 17.117188 -0.625 14.722656 -0.03125 11.984375 0 Z M 7.5625 -27.1875 L 7.5625 -3.296875 L 11.796875 -3.296875 C 14.898438 -3.296875 17.3125 -4.257812 19.03125 -6.1875 C 20.757812 -8.113281 21.625 -10.851562 21.625 -14.40625 L 21.625 -16.1875 C 21.625 -19.65625 20.804688 -22.347656 19.171875 -24.265625 C 17.546875 -26.191406 15.238281 -27.164062 12.25 -27.1875 Z M 7.5625 -27.1875 "/></g></g></g><g fill="#a6a6a6" fill-opacity="1"><g transform="translate(115.968522, 294.182548)"><g><path d="M 13.640625 -5.34375 L 22.359375 -30.5 L 26.75 -30.5 L 15.4375 0 L 11.875 0 L 0.59375 -30.5 L 4.96875 -30.5 Z M 13.640625 -5.34375 "/></g></g></g><g fill="#a6a6a6" fill-opacity="1"><g transform="translate(145.276064, 294.182548)"><g><path d="M 27 -14.265625 C 27 -11.273438 26.492188 -8.664062 25.484375 -6.4375 C 24.484375 -4.207031 23.0625 -2.503906 21.21875 -1.328125 C 19.375 -0.160156 17.222656 0.421875 14.765625 0.421875 C 12.367188 0.421875 10.238281 -0.164062 8.375 -1.34375 C 6.519531 -2.53125 5.078125 -4.210938 4.046875 -6.390625 C 3.023438 -8.578125 2.5 -11.113281 2.46875 -14 L 2.46875 -16.1875 C 2.46875 -19.125 2.976562 -21.71875 4 -23.96875 C 5.019531 -26.21875 6.460938 -27.9375 8.328125 -29.125 C 10.191406 -30.320312 12.328125 -30.921875 14.734375 -30.921875 C 17.171875 -30.921875 19.320312 -30.328125 21.1875 -29.140625 C 23.050781 -27.960938 24.484375 -26.253906 25.484375 -24.015625 C 26.492188 -21.773438 27 -19.164062 27 -16.1875 Z M 23 -16.234375 C 23 -19.847656 22.269531 -22.625 20.8125 -24.5625 C 19.363281 -26.5 17.335938 -27.46875 14.734375 -27.46875 C 12.191406 -27.46875 10.1875 -26.5 8.71875 -24.5625 C 7.257812 -22.625 6.507812 -19.941406 6.46875 -16.515625 L 6.46875 -14.265625 C 6.46875 -10.765625 7.203125 -8.007812 8.671875 -6 C 10.148438 -4 12.179688 -3 14.765625 -3 C 17.367188 -3 19.378906 -3.941406 20.796875 -5.828125 C 22.222656 -7.722656 22.957031 -10.4375 23 -13.96875 Z M 23 -16.234375 "/></g></g></g><g fill="#a6a6a6" fill-opacity="1"><g transform="translate(176.782822, 294.182548)"><g><path d="M 25.984375 -9.671875 C 25.597656 -6.453125 24.40625 -3.960938 22.40625 -2.203125 C 20.40625 -0.453125 17.738281 0.421875 14.40625 0.421875 C 10.8125 0.421875 7.925781 -0.867188 5.75 -3.453125 C 3.582031 -6.035156 2.5 -9.492188 2.5 -13.828125 L 2.5 -16.765625 C 2.5 -19.597656 3.003906 -22.085938 4.015625 -24.234375 C 5.023438 -26.390625 6.457031 -28.039062 8.3125 -29.1875 C 10.175781 -30.34375 12.328125 -30.921875 14.765625 -30.921875 C 18.003906 -30.921875 20.601562 -30.015625 22.5625 -28.203125 C 24.519531 -26.398438 25.660156 -23.898438 25.984375 -20.703125 L 21.9375 -20.703125 C 21.582031 -23.128906 20.820312 -24.882812 19.65625 -25.96875 C 18.488281 -27.0625 16.859375 -27.609375 14.765625 -27.609375 C 12.203125 -27.609375 10.1875 -26.65625 8.71875 -24.75 C 7.257812 -22.851562 6.53125 -20.15625 6.53125 -16.65625 L 6.53125 -13.703125 C 6.53125 -10.390625 7.222656 -7.753906 8.609375 -5.796875 C 9.992188 -3.847656 11.925781 -2.875 14.40625 -2.875 C 16.644531 -2.875 18.359375 -3.378906 19.546875 -4.390625 C 20.742188 -5.398438 21.539062 -7.160156 21.9375 -9.671875 Z M 25.984375 -9.671875 "/></g></g></g><g fill="#a6a6a6" fill-opacity="1"><g transform="translate(206.718707, 294.182548)"><g><path d="M 20.390625 -7.96875 L 7.609375 -7.96875 L 4.734375 0 L 0.59375 0 L 12.234375 -30.5 L 15.75 -30.5 L 27.421875 0 L 23.296875 0 Z M 8.8125 -11.265625 L 19.1875 -11.265625 L 14 -25.53125 Z M 8.8125 -11.265625 "/></g></g></g><g fill="#a6a6a6" fill-opacity="1"><g transform="translate(236.717434, 294.182548)"><g><path d="M 24.609375 -27.1875 L 14.8125 -27.1875 L 14.8125 0 L 10.8125 0 L 10.8125 -27.1875 L 1.03125 -27.1875 L 1.03125 -30.5 L 24.609375 -30.5 Z M 24.609375 -27.1875 "/></g></g></g><g fill="#a6a6a6" fill-opacity="1"><g transform="translate(264.328421, 294.182548)"><g><path d="M 20.78125 -14.09375 L 7.5625 -14.09375 L 7.5625 -3.296875 L 22.921875 -3.296875 L 22.921875 0 L 3.546875 0 L 3.546875 -30.5 L 22.703125 -30.5 L 22.703125 -27.1875 L 7.5625 -27.1875 L 7.5625 -17.390625 L 20.78125 -17.390625 Z M 20.78125 -14.09375 "/></g></g></g><g fill="#a6a6a6" fill-opacity="1"><g transform="translate(290.724614, 294.182548)"><g><path d="M 12.53125 -13.59375 C 9.082031 -14.582031 6.570312 -15.800781 5 -17.25 C 3.425781 -18.695312 2.640625 -20.484375 2.640625 -22.609375 C 2.640625 -25.003906 3.597656 -26.988281 5.515625 -28.5625 C 7.441406 -30.132812 9.941406 -30.921875 13.015625 -30.921875 C 15.109375 -30.921875 16.972656 -30.515625 18.609375 -29.703125 C 20.253906 -28.898438 21.523438 -27.785156 22.421875 -26.359375 C 23.328125 -24.929688 23.78125 -23.375 23.78125 -21.6875 L 19.734375 -21.6875 C 19.734375 -23.53125 19.144531 -24.976562 17.96875 -26.03125 C 16.800781 -27.082031 15.148438 -27.609375 13.015625 -27.609375 C 11.023438 -27.609375 9.472656 -27.171875 8.359375 -26.296875 C 7.253906 -25.429688 6.703125 -24.222656 6.703125 -22.671875 C 6.703125 -21.421875 7.226562 -20.367188 8.28125 -19.515625 C 9.34375 -18.660156 11.140625 -17.875 13.671875 -17.15625 C 16.203125 -16.445312 18.179688 -15.660156 19.609375 -14.796875 C 21.046875 -13.941406 22.109375 -12.941406 22.796875 -11.796875 C 23.492188 -10.648438 23.84375 -9.300781 23.84375 -7.75 C 23.84375 -5.28125 22.878906 -3.300781 20.953125 -1.8125 C 19.023438 -0.320312 16.445312 0.421875 13.21875 0.421875 C 11.125 0.421875 9.164062 0.0195312 7.34375 -0.78125 C 5.53125 -1.582031 4.128906 -2.679688 3.140625 -4.078125 C 2.160156 -5.484375 1.671875 -7.070312 1.671875 -8.84375 L 5.71875 -8.84375 C 5.71875 -7 6.398438 -5.539062 7.765625 -4.46875 C 9.128906 -3.40625 10.945312 -2.875 13.21875 -2.875 C 15.34375 -2.875 16.96875 -3.304688 18.09375 -4.171875 C 19.226562 -5.035156 19.796875 -6.210938 19.796875 -7.703125 C 19.796875 -9.203125 19.269531 -10.359375 18.21875 -11.171875 C 17.175781 -11.992188 15.28125 -12.800781 12.53125 -13.59375 Z M 12.53125 -13.59375 "/></g></g></g></svg>