<svg xmlns="http://www.w3.org/2000/svg" xmlns:xlink="http://www.w3.org/1999/xlink" width="500" zoomAndPan="magnify" viewBox="0 0 375 374.999991" height="500" preserveAspectRatio="xMidYMid meet" version="1.0"><defs><g/></defs><rect x="-37.5" width="450" fill="#ffffff" y="-37.499999" height="449.999989" fill-opacity="1"/><rect x="-37.5" width="450" fill="#ffffff" y="-37.499999" height="449.999989" fill-opacity="1"/><rect x="-37.5" width="450" fill="#5e17eb" y="-37.499999" height="449.999989" fill-opacity="1"/><g fill="#a6a6a6" fill-opacity="1"><g transform="translate(81.903188, 102.265719)"><g><path d="M 11.8125 0 L 5.765625 0 L 5.765625 -45.859375 L 11.8125 -45.859375 Z M 11.8125 0 "/></g></g></g><g fill="#a6a6a6" fill-opacity="1"><g transform="translate(102.481275, 102.265719)"><g><path d="M 15.21875 -14.453125 L 16.09375 -8.40625 L 17.390625 -13.859375 L 26.46875 -45.859375 L 31.5625 -45.859375 L 40.421875 -13.859375 L 41.671875 -8.3125 L 42.65625 -14.484375 L 49.765625 -45.859375 L 55.859375 -45.859375 L 44.734375 0 L 39.21875 0 L 29.765625 -33.421875 L 29.046875 -36.921875 L 28.3125 -33.421875 L 18.515625 0 L 13.015625 0 L 1.921875 -45.859375 L 7.96875 -45.859375 Z M 15.21875 -14.453125 "/></g></g></g><g fill="#a6a6a6" fill-opacity="1"><g transform="translate(162.74919, 102.265719)"><g><path d="M 3.1875 -12.3125 C 3.1875 -14.519531 3.800781 -16.546875 5.03125 -18.390625 C 6.257812 -20.242188 8.601562 -22.398438 12.0625 -24.859375 C 10.03125 -27.335938 8.664062 -29.332031 7.96875 -30.84375 C 7.28125 -32.351562 6.9375 -33.851562 6.9375 -35.34375 C 6.9375 -38.832031 7.960938 -41.5625 10.015625 -43.53125 C 12.078125 -45.507812 14.867188 -46.5 18.390625 -46.5 C 21.546875 -46.5 24.148438 -45.578125 26.203125 -43.734375 C 28.265625 -41.898438 29.296875 -39.585938 29.296875 -36.796875 C 29.296875 -34.941406 28.828125 -33.234375 27.890625 -31.671875 C 26.960938 -30.109375 25.332031 -28.46875 23 -26.75 L 19.625 -24.25 L 29.828125 -12.0625 C 31.253906 -14.789062 31.96875 -17.828125 31.96875 -21.171875 L 37.234375 -21.171875 C 37.234375 -15.816406 35.941406 -11.375 33.359375 -7.84375 L 39.90625 0 L 32.921875 0 L 29.859375 -3.625 C 28.304688 -2.238281 26.484375 -1.179688 24.390625 -0.453125 C 22.304688 0.265625 20.179688 0.625 18.015625 0.625 C 13.546875 0.625 9.957031 -0.554688 7.25 -2.921875 C 4.539062 -5.296875 3.1875 -8.425781 3.1875 -12.3125 Z M 18.015625 -4.125 C 21.109375 -4.125 23.9375 -5.300781 26.5 -7.65625 L 15.3125 -21.046875 L 14.265625 -20.28125 C 10.765625 -17.695312 9.015625 -15.039062 9.015625 -12.3125 C 9.015625 -9.832031 9.816406 -7.847656 11.421875 -6.359375 C 13.023438 -4.867188 15.222656 -4.125 18.015625 -4.125 Z M 12.765625 -35.53125 C 12.765625 -33.519531 14 -31 16.46875 -27.96875 L 20.1875 -30.59375 C 21.613281 -31.59375 22.585938 -32.550781 23.109375 -33.46875 C 23.640625 -34.382812 23.90625 -35.492188 23.90625 -36.796875 C 23.90625 -38.203125 23.378906 -39.367188 22.328125 -40.296875 C 21.285156 -41.234375 19.960938 -41.703125 18.359375 -41.703125 C 16.640625 -41.703125 15.273438 -41.117188 14.265625 -39.953125 C 13.265625 -38.796875 12.765625 -37.320312 12.765625 -35.53125 Z M 12.765625 -35.53125 "/></g></g></g><g fill="#a6a6a6" fill-opacity="1"><g transform="translate(205.881179, 102.265719)"><g><path d="M 30.65625 -11.96875 L 11.4375 -11.96875 L 7.125 0 L 0.875 0 L 18.390625 -45.859375 L 23.6875 -45.859375 L 41.234375 0 L 35.03125 0 Z M 13.265625 -16.953125 L 28.859375 -16.953125 L 21.046875 -38.40625 Z M 13.265625 -16.953125 "/></g></g></g><g fill="#a6a6a6" fill-opacity="1"><g transform="translate(250.997654, 102.265719)"><g><path d="M 30.65625 -11.96875 L 11.4375 -11.96875 L 7.125 0 L 0.875 0 L 18.390625 -45.859375 L 23.6875 -45.859375 L 41.234375 0 L 35.03125 0 Z M 13.265625 -16.953125 L 28.859375 -16.953125 L 21.046875 -38.40625 Z M 13.265625 -16.953125 "/></g></g></g><g fill="#a6a6a6" fill-opacity="1"><g transform="translate(124.60631, 149.515716)"><g><path d="M 7.046875 0 L 3.4375 0 L 3.4375 -27.34375 L 7.046875 -27.34375 Z M 7.046875 0 "/></g></g></g><g fill="#a6a6a6" fill-opacity="1"><g transform="translate(136.870719, 149.515716)"><g><path d="M 11.234375 -12.1875 C 8.140625 -13.070312 5.882812 -14.160156 4.46875 -15.453125 C 3.0625 -16.753906 2.359375 -18.359375 2.359375 -20.265625 C 2.359375 -22.410156 3.21875 -24.1875 4.9375 -25.59375 C 6.664062 -27.007812 8.90625 -27.71875 11.65625 -27.71875 C 13.53125 -27.71875 15.203125 -27.351562 16.671875 -26.625 C 18.148438 -25.894531 19.289062 -24.890625 20.09375 -23.609375 C 20.90625 -22.335938 21.3125 -20.945312 21.3125 -19.4375 L 17.6875 -19.4375 C 17.6875 -21.082031 17.160156 -22.378906 16.109375 -23.328125 C 15.054688 -24.273438 13.570312 -24.75 11.65625 -24.75 C 9.882812 -24.75 8.5 -24.359375 7.5 -23.578125 C 6.507812 -22.796875 6.015625 -21.707031 6.015625 -20.3125 C 6.015625 -19.195312 6.484375 -18.253906 7.421875 -17.484375 C 8.367188 -16.710938 9.976562 -16.007812 12.25 -15.375 C 14.519531 -14.738281 16.296875 -14.035156 17.578125 -13.265625 C 18.867188 -12.492188 19.820312 -11.59375 20.4375 -10.5625 C 21.050781 -9.539062 21.359375 -8.335938 21.359375 -6.953125 C 21.359375 -4.734375 20.492188 -2.957031 18.765625 -1.625 C 17.046875 -0.289062 14.738281 0.375 11.84375 0.375 C 9.96875 0.375 8.21875 0.015625 6.59375 -0.703125 C 4.96875 -1.421875 3.710938 -2.40625 2.828125 -3.65625 C 1.941406 -4.90625 1.5 -6.328125 1.5 -7.921875 L 5.125 -7.921875 C 5.125 -6.265625 5.734375 -4.957031 6.953125 -4 C 8.171875 -3.050781 9.800781 -2.578125 11.84375 -2.578125 C 13.75 -2.578125 15.207031 -2.960938 16.21875 -3.734375 C 17.238281 -4.515625 17.75 -5.570312 17.75 -6.90625 C 17.75 -8.25 17.273438 -9.285156 16.328125 -10.015625 C 15.390625 -10.742188 13.691406 -11.46875 11.234375 -12.1875 Z M 11.234375 -12.1875 "/></g></g></g><g fill="#a6a6a6" fill-opacity="1"><g transform="translate(161.488441, 149.515716)"><g><path d="M 18.265625 -7.140625 L 6.8125 -7.140625 L 4.25 0 L 0.53125 0 L 10.96875 -27.34375 L 14.125 -27.34375 L 24.578125 0 L 20.875 0 Z M 7.90625 -10.09375 L 17.203125 -10.09375 L 12.546875 -22.890625 Z M 7.90625 -10.09375 "/></g></g></g><g fill="#a6a6a6" fill-opacity="1"><g transform="translate(188.377815, 149.515716)"><g><path d="M 18.265625 -7.140625 L 6.8125 -7.140625 L 4.25 0 L 0.53125 0 L 10.96875 -27.34375 L 14.125 -27.34375 L 24.578125 0 L 20.875 0 Z M 7.90625 -10.09375 L 17.203125 -10.09375 L 12.546875 -22.890625 Z M 7.90625 -10.09375 "/></g></g></g><g fill="#a6a6a6" fill-opacity="1"><g transform="translate(215.267189, 149.515716)"><g><path d="M 23.28125 -8.671875 C 22.945312 -5.785156 21.878906 -3.554688 20.078125 -1.984375 C 18.285156 -0.410156 15.898438 0.375 12.921875 0.375 C 9.691406 0.375 7.101562 -0.78125 5.15625 -3.09375 C 3.207031 -5.414062 2.234375 -8.515625 2.234375 -12.390625 L 2.234375 -15.015625 C 2.234375 -17.554688 2.6875 -19.789062 3.59375 -21.71875 C 4.5 -23.644531 5.785156 -25.125 7.453125 -26.15625 C 9.117188 -27.195312 11.046875 -27.71875 13.234375 -27.71875 C 16.140625 -27.71875 18.46875 -26.90625 20.21875 -25.28125 C 21.96875 -23.65625 22.988281 -21.410156 23.28125 -18.546875 L 19.65625 -18.546875 C 19.34375 -20.722656 18.660156 -22.300781 17.609375 -23.28125 C 16.566406 -24.257812 15.109375 -24.75 13.234375 -24.75 C 10.929688 -24.75 9.125 -23.894531 7.8125 -22.1875 C 6.507812 -20.488281 5.859375 -18.066406 5.859375 -14.921875 L 5.859375 -12.28125 C 5.859375 -9.3125 6.476562 -6.953125 7.71875 -5.203125 C 8.957031 -3.453125 10.691406 -2.578125 12.921875 -2.578125 C 14.921875 -2.578125 16.453125 -3.03125 17.515625 -3.9375 C 18.585938 -4.84375 19.300781 -6.421875 19.65625 -8.671875 Z M 23.28125 -8.671875 "/></g></g></g><g fill="#a6a6a6" fill-opacity="1"><g transform="translate(242.09849, 149.515716)"><g/></g></g><g fill="#a6a6a6" fill-opacity="1"><g transform="translate(171.047713, 190.765713)"><g><path d="M 9.0625 -8.625 L 9.59375 -5.015625 L 10.359375 -8.265625 L 15.765625 -27.34375 L 18.8125 -27.34375 L 24.09375 -8.265625 L 24.84375 -4.953125 L 25.421875 -8.640625 L 29.671875 -27.34375 L 33.296875 -27.34375 L 26.65625 0 L 23.375 0 L 17.75 -19.921875 L 17.3125 -22 L 16.875 -19.921875 L 11.046875 0 L 7.75 0 L 1.140625 -27.34375 L 4.75 -27.34375 Z M 9.0625 -8.625 "/></g></g></g><g fill="#a6a6a6" fill-opacity="1"><g transform="translate(176.157088, 232.01571)"><g><path d="M 1.890625 -7.34375 C 1.890625 -8.65625 2.253906 -9.863281 2.984375 -10.96875 C 3.722656 -12.070312 5.125 -13.351562 7.1875 -14.8125 C 5.976562 -16.289062 5.164062 -17.476562 4.75 -18.375 C 4.332031 -19.28125 4.125 -20.175781 4.125 -21.0625 C 4.125 -23.144531 4.738281 -24.773438 5.96875 -25.953125 C 7.195312 -27.128906 8.863281 -27.71875 10.96875 -27.71875 C 12.84375 -27.71875 14.394531 -27.164062 15.625 -26.0625 C 16.851562 -24.96875 17.46875 -23.59375 17.46875 -21.9375 C 17.46875 -20.832031 17.1875 -19.8125 16.625 -18.875 C 16.070312 -17.945312 15.097656 -16.96875 13.703125 -15.9375 L 11.703125 -14.453125 L 17.78125 -7.1875 C 18.632812 -8.8125 19.0625 -10.625 19.0625 -12.625 L 22.1875 -12.625 C 22.1875 -9.425781 21.421875 -6.773438 19.890625 -4.671875 L 23.796875 0 L 19.625 0 L 17.796875 -2.15625 C 16.867188 -1.332031 15.78125 -0.703125 14.53125 -0.265625 C 13.289062 0.160156 12.023438 0.375 10.734375 0.375 C 8.066406 0.375 5.925781 -0.332031 4.3125 -1.75 C 2.695312 -3.164062 1.890625 -5.03125 1.890625 -7.34375 Z M 10.734375 -2.453125 C 12.578125 -2.453125 14.265625 -3.15625 15.796875 -4.5625 L 9.125 -12.546875 L 8.5 -12.09375 C 6.414062 -10.550781 5.375 -8.96875 5.375 -7.34375 C 5.375 -5.863281 5.851562 -4.675781 6.8125 -3.78125 C 7.769531 -2.894531 9.078125 -2.453125 10.734375 -2.453125 Z M 7.609375 -21.171875 C 7.609375 -19.972656 8.34375 -18.472656 9.8125 -16.671875 L 12.03125 -18.234375 C 12.882812 -18.828125 13.46875 -19.394531 13.78125 -19.9375 C 14.09375 -20.488281 14.25 -21.15625 14.25 -21.9375 C 14.25 -22.769531 13.9375 -23.460938 13.3125 -24.015625 C 12.6875 -24.578125 11.898438 -24.859375 10.953125 -24.859375 C 9.921875 -24.859375 9.101562 -24.507812 8.5 -23.8125 C 7.90625 -23.125 7.609375 -22.242188 7.609375 -21.171875 Z M 7.609375 -21.171875 "/></g></g></g><g fill="#a6a6a6" fill-opacity="1"><g transform="translate(67.325064, 273.265708)"><g><path d="M 18.265625 -7.140625 L 6.8125 -7.140625 L 4.25 0 L 0.53125 0 L 10.96875 -27.34375 L 14.125 -27.34375 L 24.578125 0 L 20.875 0 Z M 7.90625 -10.09375 L 17.203125 -10.09375 L 12.546875 -22.890625 Z M 7.90625 -10.09375 "/></g></g></g><g fill="#a6a6a6" fill-opacity="1"><g transform="translate(94.214438, 273.265708)"><g><path d="M 11.234375 -12.1875 C 8.140625 -13.070312 5.882812 -14.160156 4.46875 -15.453125 C 3.0625 -16.753906 2.359375 -18.359375 2.359375 -20.265625 C 2.359375 -22.410156 3.21875 -24.1875 4.9375 -25.59375 C 6.664062 -27.007812 8.90625 -27.71875 11.65625 -27.71875 C 13.53125 -27.71875 15.203125 -27.351562 16.671875 -26.625 C 18.148438 -25.894531 19.289062 -24.890625 20.09375 -23.609375 C 20.90625 -22.335938 21.3125 -20.945312 21.3125 -19.4375 L 17.6875 -19.4375 C 17.6875 -21.082031 17.160156 -22.378906 16.109375 -23.328125 C 15.054688 -24.273438 13.570312 -24.75 11.65625 -24.75 C 9.882812 -24.75 8.5 -24.359375 7.5 -23.578125 C 6.507812 -22.796875 6.015625 -21.707031 6.015625 -20.3125 C 6.015625 -19.195312 6.484375 -18.253906 7.421875 -17.484375 C 8.367188 -16.710938 9.976562 -16.007812 12.25 -15.375 C 14.519531 -14.738281 16.296875 -14.035156 17.578125 -13.265625 C 18.867188 -12.492188 19.820312 -11.59375 20.4375 -10.5625 C 21.050781 -9.539062 21.359375 -8.335938 21.359375 -6.953125 C 21.359375 -4.734375 20.492188 -2.957031 18.765625 -1.625 C 17.046875 -0.289062 14.738281 0.375 11.84375 0.375 C 9.96875 0.375 8.21875 0.015625 6.59375 -0.703125 C 4.96875 -1.421875 3.710938 -2.40625 2.828125 -3.65625 C 1.941406 -4.90625 1.5 -6.328125 1.5 -7.921875 L 5.125 -7.921875 C 5.125 -6.265625 5.734375 -4.957031 6.953125 -4 C 8.171875 -3.050781 9.800781 -2.578125 11.84375 -2.578125 C 13.75 -2.578125 15.207031 -2.960938 16.21875 -3.734375 C 17.238281 -4.515625 17.75 -5.570312 17.75 -6.90625 C 17.75 -8.25 17.273438 -9.285156 16.328125 -10.015625 C 15.390625 -10.742188 13.691406 -11.46875 11.234375 -12.1875 Z M 11.234375 -12.1875 "/></g></g></g><g fill="#a6a6a6" fill-opacity="1"><g transform="translate(118.832159, 273.265708)"><g><path d="M 11.234375 -12.1875 C 8.140625 -13.070312 5.882812 -14.160156 4.46875 -15.453125 C 3.0625 -16.753906 2.359375 -18.359375 2.359375 -20.265625 C 2.359375 -22.410156 3.21875 -24.1875 4.9375 -25.59375 C 6.664062 -27.007812 8.90625 -27.71875 11.65625 -27.71875 C 13.53125 -27.71875 15.203125 -27.351562 16.671875 -26.625 C 18.148438 -25.894531 19.289062 -24.890625 20.09375 -23.609375 C 20.90625 -22.335938 21.3125 -20.945312 21.3125 -19.4375 L 17.6875 -19.4375 C 17.6875 -21.082031 17.160156 -22.378906 16.109375 -23.328125 C 15.054688 -24.273438 13.570312 -24.75 11.65625 -24.75 C 9.882812 -24.75 8.5 -24.359375 7.5 -23.578125 C 6.507812 -22.796875 6.015625 -21.707031 6.015625 -20.3125 C 6.015625 -19.195312 6.484375 -18.253906 7.421875 -17.484375 C 8.367188 -16.710938 9.976562 -16.007812 12.25 -15.375 C 14.519531 -14.738281 16.296875 -14.035156 17.578125 -13.265625 C 18.867188 -12.492188 19.820312 -11.59375 20.4375 -10.5625 C 21.050781 -9.539062 21.359375 -8.335938 21.359375 -6.953125 C 21.359375 -4.734375 20.492188 -2.957031 18.765625 -1.625 C 17.046875 -0.289062 14.738281 0.375 11.84375 0.375 C 9.96875 0.375 8.21875 0.015625 6.59375 -0.703125 C 4.96875 -1.421875 3.710938 -2.40625 2.828125 -3.65625 C 1.941406 -4.90625 1.5 -6.328125 1.5 -7.921875 L 5.125 -7.921875 C 5.125 -6.265625 5.734375 -4.957031 6.953125 -4 C 8.171875 -3.050781 9.800781 -2.578125 11.84375 -2.578125 C 13.75 -2.578125 15.207031 -2.960938 16.21875 -3.734375 C 17.238281 -4.515625 17.75 -5.570312 17.75 -6.90625 C 17.75 -8.25 17.273438 -9.285156 16.328125 -10.015625 C 15.390625 -10.742188 13.691406 -11.46875 11.234375 -12.1875 Z M 11.234375 -12.1875 "/></g></g></g><g fill="#a6a6a6" fill-opacity="1"><g transform="translate(143.449881, 273.265708)"><g><path d="M 24.203125 -12.78125 C 24.203125 -10.101562 23.75 -7.765625 22.84375 -5.765625 C 21.945312 -3.773438 20.671875 -2.253906 19.015625 -1.203125 C 17.367188 -0.148438 15.441406 0.375 13.234375 0.375 C 11.078125 0.375 9.164062 -0.148438 7.5 -1.203125 C 5.84375 -2.265625 4.550781 -3.773438 3.625 -5.734375 C 2.707031 -7.691406 2.238281 -9.960938 2.21875 -12.546875 L 2.21875 -14.515625 C 2.21875 -17.140625 2.671875 -19.457031 3.578125 -21.46875 C 4.492188 -23.488281 5.785156 -25.035156 7.453125 -26.109375 C 9.128906 -27.179688 11.046875 -27.71875 13.203125 -27.71875 C 15.390625 -27.71875 17.316406 -27.1875 18.984375 -26.125 C 20.660156 -25.070312 21.945312 -23.539062 22.84375 -21.53125 C 23.75 -19.519531 24.203125 -17.179688 24.203125 -14.515625 Z M 20.609375 -14.546875 C 20.609375 -17.796875 19.957031 -20.285156 18.65625 -22.015625 C 17.351562 -23.742188 15.535156 -24.609375 13.203125 -24.609375 C 10.921875 -24.609375 9.125 -23.742188 7.8125 -22.015625 C 6.507812 -20.285156 5.835938 -17.878906 5.796875 -14.796875 L 5.796875 -12.78125 C 5.796875 -9.644531 6.457031 -7.175781 7.78125 -5.375 C 9.101562 -3.582031 10.921875 -2.6875 13.234375 -2.6875 C 15.566406 -2.6875 17.367188 -3.53125 18.640625 -5.21875 C 19.921875 -6.914062 20.578125 -9.351562 20.609375 -12.53125 Z M 20.609375 -14.546875 "/></g></g></g><g fill="#a6a6a6" fill-opacity="1"><g transform="translate(171.690985, 273.265708)"><g><path d="M 23.28125 -8.671875 C 22.945312 -5.785156 21.878906 -3.554688 20.078125 -1.984375 C 18.285156 -0.410156 15.898438 0.375 12.921875 0.375 C 9.691406 0.375 7.101562 -0.78125 5.15625 -3.09375 C 3.207031 -5.414062 2.234375 -8.515625 2.234375 -12.390625 L 2.234375 -15.015625 C 2.234375 -17.554688 2.6875 -19.789062 3.59375 -21.71875 C 4.5 -23.644531 5.785156 -25.125 7.453125 -26.15625 C 9.117188 -27.195312 11.046875 -27.71875 13.234375 -27.71875 C 16.140625 -27.71875 18.46875 -26.90625 20.21875 -25.28125 C 21.96875 -23.65625 22.988281 -21.410156 23.28125 -18.546875 L 19.65625 -18.546875 C 19.34375 -20.722656 18.660156 -22.300781 17.609375 -23.28125 C 16.566406 -24.257812 15.109375 -24.75 13.234375 -24.75 C 10.929688 -24.75 9.125 -23.894531 7.8125 -22.1875 C 6.507812 -20.488281 5.859375 -18.066406 5.859375 -14.921875 L 5.859375 -12.28125 C 5.859375 -9.3125 6.476562 -6.953125 7.71875 -5.203125 C 8.957031 -3.453125 10.691406 -2.578125 12.921875 -2.578125 C 14.921875 -2.578125 16.453125 -3.03125 17.515625 -3.9375 C 18.585938 -4.84375 19.300781 -6.421875 19.65625 -8.671875 Z M 23.28125 -8.671875 "/></g></g></g><g fill="#a6a6a6" fill-opacity="1"><g transform="translate(198.524037, 273.265708)"><g><path d="M 7.046875 0 L 3.4375 0 L 3.4375 -27.34375 L 7.046875 -27.34375 Z M 7.046875 0 "/></g></g></g><g fill="#a6a6a6" fill-opacity="1"><g transform="translate(210.788441, 273.265708)"><g><path d="M 18.265625 -7.140625 L 6.8125 -7.140625 L 4.25 0 L 0.53125 0 L 10.96875 -27.34375 L 14.125 -27.34375 L 24.578125 0 L 20.875 0 Z M 7.90625 -10.09375 L 17.203125 -10.09375 L 12.546875 -22.890625 Z M 7.90625 -10.09375 "/></g></g></g><g fill="#a6a6a6" fill-opacity="1"><g transform="translate(237.677821, 273.265708)"><g><path d="M 22.0625 -24.375 L 13.28125 -24.375 L 13.28125 0 L 9.6875 0 L 9.6875 -24.375 L 0.921875 -24.375 L 0.921875 -27.34375 L 22.0625 -27.34375 Z M 22.0625 -24.375 "/></g></g></g><g fill="#a6a6a6" fill-opacity="1"><g transform="translate(262.426949, 273.265708)"><g><path d="M 18.625 -12.640625 L 6.78125 -12.640625 L 6.78125 -2.953125 L 20.546875 -2.953125 L 20.546875 0 L 3.171875 0 L 3.171875 -27.34375 L 20.359375 -27.34375 L 20.359375 -24.375 L 6.78125 -24.375 L 6.78125 -15.578125 L 18.625 -15.578125 Z M 18.625 -12.640625 "/></g></g></g><g fill="#a6a6a6" fill-opacity="1"><g transform="translate(286.087195, 273.265708)"><g><path d="M 11.234375 -12.1875 C 8.140625 -13.070312 5.882812 -14.160156 4.46875 -15.453125 C 3.0625 -16.753906 2.359375 -18.359375 2.359375 -20.265625 C 2.359375 -22.410156 3.21875 -24.1875 4.9375 -25.59375 C 6.664062 -27.007812 8.90625 -27.71875 11.65625 -27.71875 C 13.53125 -27.71875 15.203125 -27.351562 16.671875 -26.625 C 18.148438 -25.894531 19.289062 -24.890625 20.09375 -23.609375 C 20.90625 -22.335938 21.3125 -20.945312 21.3125 -19.4375 L 17.6875 -19.4375 C 17.6875 -21.082031 17.160156 -22.378906 16.109375 -23.328125 C 15.054688 -24.273438 13.570312 -24.75 11.65625 -24.75 C 9.882812 -24.75 8.5 -24.359375 7.5 -23.578125 C 6.507812 -22.796875 6.015625 -21.707031 6.015625 -20.3125 C 6.015625 -19.195312 6.484375 -18.253906 7.421875 -17.484375 C 8.367188 -16.710938 9.976562 -16.007812 12.25 -15.375 C 14.519531 -14.738281 16.296875 -14.035156 17.578125 -13.265625 C 18.867188 -12.492188 19.820312 -11.59375 20.4375 -10.5625 C 21.050781 -9.539062 21.359375 -8.335938 21.359375 -6.953125 C 21.359375 -4.734375 20.492188 -2.957031 18.765625 -1.625 C 17.046875 -0.289062 14.738281 0.375 11.84375 0.375 C 9.96875 0.375 8.21875 0.015625 6.59375 -0.703125 C 4.96875 -1.421875 3.710938 -2.40625 2.828125 -3.65625 C 1.941406 -4.90625 1.5 -6.328125 1.5 -7.921875 L 5.125 -7.921875 C 5.125 -6.265625 5.734375 -4.957031 6.953125 -4 C 8.171875 -3.050781 9.800781 -2.578125 11.84375 -2.578125 C 13.75 -2.578125 15.207031 -2.960938 16.21875 -3.734375 C 17.238281 -4.515625 17.75 -5.570312 17.75 -6.90625 C 17.75 -8.25 17.273438 -9.285156 16.328125 -10.015625 C 15.390625 -10.742188 13.691406 -11.46875 11.234375 -12.1875 Z M 11.234375 -12.1875 "/></g></g></g><g fill="#a6a6a6" fill-opacity="1"><g transform="translate(71.426626, 314.515705)"><g><path d="M 18.265625 -7.140625 L 6.8125 -7.140625 L 4.25 0 L 0.53125 0 L 10.96875 -27.34375 L 14.125 -27.34375 L 24.578125 0 L 20.875 0 Z M 7.90625 -10.09375 L 17.203125 -10.09375 L 12.546875 -22.890625 Z M 7.90625 -10.09375 "/></g></g></g><g fill="#a6a6a6" fill-opacity="1"><g transform="translate(98.316, 314.515705)"><g><path d="M 3.171875 0 L 3.171875 -27.34375 L 10.890625 -27.34375 C 13.265625 -27.34375 15.363281 -26.816406 17.1875 -25.765625 C 19.019531 -24.710938 20.429688 -23.210938 21.421875 -21.265625 C 22.421875 -19.328125 22.925781 -17.101562 22.9375 -14.59375 L 22.9375 -12.84375 C 22.9375 -10.257812 22.4375 -8 21.4375 -6.0625 C 20.445312 -4.125 19.03125 -2.632812 17.1875 -1.59375 C 15.34375 -0.550781 13.191406 -0.0195312 10.734375 0 Z M 6.78125 -24.375 L 6.78125 -2.953125 L 10.578125 -2.953125 C 13.347656 -2.953125 15.503906 -3.8125 17.046875 -5.53125 C 18.597656 -7.257812 19.375 -9.722656 19.375 -12.921875 L 19.375 -14.515625 C 19.375 -17.617188 18.644531 -20.03125 17.1875 -21.75 C 15.726562 -23.46875 13.660156 -24.34375 10.984375 -24.375 Z M 6.78125 -24.375 "/></g></g></g><g fill="#a6a6a6" fill-opacity="1"><g transform="translate(125.336798, 314.515705)"><g><path d="M 12.21875 -4.78125 L 20.03125 -27.34375 L 23.984375 -27.34375 L 13.84375 0 L 10.640625 0 L 0.53125 -27.34375 L 4.453125 -27.34375 Z M 12.21875 -4.78125 "/></g></g></g><g fill="#a6a6a6" fill-opacity="1"><g transform="translate(151.606634, 314.515705)"><g><path d="M 24.203125 -12.78125 C 24.203125 -10.101562 23.75 -7.765625 22.84375 -5.765625 C 21.945312 -3.773438 20.671875 -2.253906 19.015625 -1.203125 C 17.367188 -0.148438 15.441406 0.375 13.234375 0.375 C 11.078125 0.375 9.164062 -0.148438 7.5 -1.203125 C 5.84375 -2.265625 4.550781 -3.773438 3.625 -5.734375 C 2.707031 -7.691406 2.238281 -9.960938 2.21875 -12.546875 L 2.21875 -14.515625 C 2.21875 -17.140625 2.671875 -19.457031 3.578125 -21.46875 C 4.492188 -23.488281 5.785156 -25.035156 7.453125 -26.109375 C 9.128906 -27.179688 11.046875 -27.71875 13.203125 -27.71875 C 15.390625 -27.71875 17.316406 -27.1875 18.984375 -26.125 C 20.660156 -25.070312 21.945312 -23.539062 22.84375 -21.53125 C 23.75 -19.519531 24.203125 -17.179688 24.203125 -14.515625 Z M 20.609375 -14.546875 C 20.609375 -17.796875 19.957031 -20.285156 18.65625 -22.015625 C 17.351562 -23.742188 15.535156 -24.609375 13.203125 -24.609375 C 10.921875 -24.609375 9.125 -23.742188 7.8125 -22.015625 C 6.507812 -20.285156 5.835938 -17.878906 5.796875 -14.796875 L 5.796875 -12.78125 C 5.796875 -9.644531 6.457031 -7.175781 7.78125 -5.375 C 9.101562 -3.582031 10.921875 -2.6875 13.234375 -2.6875 C 15.566406 -2.6875 17.367188 -3.53125 18.640625 -5.21875 C 19.921875 -6.914062 20.578125 -9.351562 20.609375 -12.53125 Z M 20.609375 -14.546875 "/></g></g></g><g fill="#a6a6a6" fill-opacity="1"><g transform="translate(179.847739, 314.515705)"><g><path d="M 23.28125 -8.671875 C 22.945312 -5.785156 21.878906 -3.554688 20.078125 -1.984375 C 18.285156 -0.410156 15.898438 0.375 12.921875 0.375 C 9.691406 0.375 7.101562 -0.78125 5.15625 -3.09375 C 3.207031 -5.414062 2.234375 -8.515625 2.234375 -12.390625 L 2.234375 -15.015625 C 2.234375 -17.554688 2.6875 -19.789062 3.59375 -21.71875 C 4.5 -23.644531 5.785156 -25.125 7.453125 -26.15625 C 9.117188 -27.195312 11.046875 -27.71875 13.234375 -27.71875 C 16.140625 -27.71875 18.46875 -26.90625 20.21875 -25.28125 C 21.96875 -23.65625 22.988281 -21.410156 23.28125 -18.546875 L 19.65625 -18.546875 C 19.34375 -20.722656 18.660156 -22.300781 17.609375 -23.28125 C 16.566406 -24.257812 15.109375 -24.75 13.234375 -24.75 C 10.929688 -24.75 9.125 -23.894531 7.8125 -22.1875 C 6.507812 -20.488281 5.859375 -18.066406 5.859375 -14.921875 L 5.859375 -12.28125 C 5.859375 -9.3125 6.476562 -6.953125 7.71875 -5.203125 C 8.957031 -3.453125 10.691406 -2.578125 12.921875 -2.578125 C 14.921875 -2.578125 16.453125 -3.03125 17.515625 -3.9375 C 18.585938 -4.84375 19.300781 -6.421875 19.65625 -8.671875 Z M 23.28125 -8.671875 "/></g></g></g><g fill="#a6a6a6" fill-opacity="1"><g transform="translate(206.680791, 314.515705)"><g><path d="M 18.265625 -7.140625 L 6.8125 -7.140625 L 4.25 0 L 0.53125 0 L 10.96875 -27.34375 L 14.125 -27.34375 L 24.578125 0 L 20.875 0 Z M 7.90625 -10.09375 L 17.203125 -10.09375 L 12.546875 -22.890625 Z M 7.90625 -10.09375 "/></g></g></g><g fill="#a6a6a6" fill-opacity="1"><g transform="translate(233.570171, 314.515705)"><g><path d="M 22.0625 -24.375 L 13.28125 -24.375 L 13.28125 0 L 9.6875 0 L 9.6875 -24.375 L 0.921875 -24.375 L 0.921875 -27.34375 L 22.0625 -27.34375 Z M 22.0625 -24.375 "/></g></g></g><g fill="#a6a6a6" fill-opacity="1"><g transform="translate(258.319299, 314.515705)"><g><path d="M 18.625 -12.640625 L 6.78125 -12.640625 L 6.78125 -2.953125 L 20.546875 -2.953125 L 20.546875 0 L 3.171875 0 L 3.171875 -27.34375 L 20.359375 -27.34375 L 20.359375 -24.375 L 6.78125 -24.375 L 6.78125 -15.578125 L 18.625 -15.578125 Z M 18.625 -12.640625 "/></g></g></g><g fill="#a6a6a6" fill-opacity="1"><g transform="translate(281.979545, 314.515705)"><g><path d="M 11.234375 -12.1875 C 8.140625 -13.070312 5.882812 -14.160156 4.46875 -15.453125 C 3.0625 -16.753906 2.359375 -18.359375 2.359375 -20.265625 C 2.359375 -22.410156 3.21875 -24.1875 4.9375 -25.59375 C 6.664062 -27.007812 8.90625 -27.71875 11.65625 -27.71875 C 13.53125 -27.71875 15.203125 -27.351562 16.671875 -26.625 C 18.148438 -25.894531 19.289062 -24.890625 20.09375 -23.609375 C 20.90625 -22.335938 21.3125 -20.945312 21.3125 -19.4375 L 17.6875 -19.4375 C 17.6875 -21.082031 17.160156 -22.378906 16.109375 -23.328125 C 15.054688 -24.273438 13.570312 -24.75 11.65625 -24.75 C 9.882812 -24.75 8.5 -24.359375 7.5 -23.578125 C 6.507812 -22.796875 6.015625 -21.707031 6.015625 -20.3125 C 6.015625 -19.195312 6.484375 -18.253906 7.421875 -17.484375 C 8.367188 -16.710938 9.976562 -16.007812 12.25 -15.375 C 14.519531 -14.738281 16.296875 -14.035156 17.578125 -13.265625 C 18.867188 -12.492188 19.820312 -11.59375 20.4375 -10.5625 C 21.050781 -9.539062 21.359375 -8.335938 21.359375 -6.953125 C 21.359375 -4.734375 20.492188 -2.957031 18.765625 -1.625 C 17.046875 -0.289062 14.738281 0.375 11.84375 0.375 C 9.96875 0.375 8.21875 0.015625 6.59375 -0.703125 C 4.96875 -1.421875 3.710938 -2.40625 2.828125 -3.65625 C 1.941406 -4.90625 1.5 -6.328125 1.5 -7.921875 L 5.125 -7.921875 C 5.125 -6.265625 5.734375 -4.957031 6.953125 -4 C 8.171875 -3.050781 9.800781 -2.578125 11.84375 -2.578125 C 13.75 -2.578125 15.207031 -2.960938 16.21875 -3.734375 C 17.238281 -4.515625 17.75 -5.570312 17.75 -6.90625 C 17.75 -8.25 17.273438 -9.285156 16.328125 -10.015625 C 15.390625 -10.742188 13.691406 -11.46875 11.234375 -12.1875 Z M 11.234375 -12.1875 "/></g></g></g></svg>